<svg width="176" height="49" viewBox="0 0 176 49" fill="none" xmlns="http://www.w3.org/2000/svg">
<path d="M65.76 27.9675C64.7333 28.9809 63.4867 29.4875 62.02 29.4875C60.5533 29.4875 59.3067 28.9809 58.28 27.9675C57.2667 26.9542 56.76 25.7075 56.76 24.2275C56.76 22.7475 57.2667 21.5009 58.28 20.4875C59.3067 19.4742 60.5533 18.9675 62.02 18.9675C63.4867 18.9675 64.7333 19.4742 65.76 20.4875C66.7867 21.5009 67.3 22.7475 67.3 24.2275C67.3 25.7075 66.7867 26.9542 65.76 27.9675ZM62.02 27.7875C63.02 27.7875 63.86 27.4475 64.54 26.7675C65.22 26.0875 65.56 25.2409 65.56 24.2275C65.56 23.2142 65.22 22.3675 64.54 21.6875C63.86 21.0075 63.02 20.6675 62.02 20.6675C61.0333 20.6675 60.2 21.0075 59.52 21.6875C58.84 22.3675 58.5 23.2142 58.5 24.2275C58.5 25.2409 58.84 26.0875 59.52 26.7675C60.2 27.4475 61.0333 27.7875 62.02 27.7875ZM74.8713 18.9675C76.2713 18.9675 77.4646 19.4809 78.4513 20.5075C79.4379 21.5209 79.9313 22.7609 79.9313 24.2275C79.9313 25.6942 79.4379 26.9409 78.4513 27.9675C77.4646 28.9809 76.2713 29.4875 74.8713 29.4875C73.2179 29.4875 71.9579 28.8275 71.0913 27.5075V33.2275H69.3512V19.2275H71.0913V20.9475C71.9579 19.6275 73.2179 18.9675 74.8713 18.9675ZM74.6513 27.8075C75.6513 27.8075 76.4913 27.4675 77.1713 26.7875C77.8513 26.0942 78.1913 25.2409 78.1913 24.2275C78.1913 23.2142 77.8513 22.3675 77.1713 21.6875C76.4913 20.9942 75.6513 20.6475 74.6513 20.6475C73.6379 20.6475 72.7913 20.9942 72.1113 21.6875C71.4313 22.3675 71.0913 23.2142 71.0913 24.2275C71.0913 25.2409 71.4313 26.0942 72.1113 26.7875C72.7913 27.4675 73.6379 27.8075 74.6513 27.8075ZM83.2275 25.0275C83.4008 25.9209 83.8075 26.6142 84.4475 27.1075C85.1008 27.6009 85.9008 27.8475 86.8475 27.8475C88.1675 27.8475 89.1275 27.3609 89.7275 26.3875L91.2075 27.2275C90.2342 28.7342 88.7675 29.4875 86.8075 29.4875C85.2208 29.4875 83.9275 28.9942 82.9275 28.0075C81.9408 27.0075 81.4475 25.7475 81.4475 24.2275C81.4475 22.7209 81.9342 21.4675 82.9075 20.4675C83.8808 19.4675 85.1408 18.9675 86.6875 18.9675C88.1542 18.9675 89.3475 19.4875 90.2675 20.5275C91.2008 21.5542 91.6675 22.7942 91.6675 24.2475C91.6675 24.5009 91.6475 24.7609 91.6075 25.0275H83.2275ZM86.6875 20.6075C85.7542 20.6075 84.9808 20.8742 84.3675 21.4075C83.7542 21.9275 83.3742 22.6275 83.2275 23.5075H89.9075C89.7608 22.5609 89.3875 21.8409 88.7875 21.3475C88.1875 20.8542 87.4875 20.6075 86.6875 20.6075ZM98.6477 18.9675C99.821 18.9675 100.761 19.3409 101.468 20.0875C102.174 20.8209 102.528 21.8209 102.528 23.0875V29.2275H100.788V23.1875C100.788 22.3742 100.568 21.7475 100.128 21.3075C99.6877 20.8542 99.081 20.6275 98.3077 20.6275C97.441 20.6275 96.741 20.9009 96.2077 21.4475C95.6743 21.9809 95.4077 22.8075 95.4077 23.9275V29.2275H93.6677V19.2275H95.4077V20.6675C96.1143 19.5342 97.1943 18.9675 98.6477 18.9675ZM105.137 23.9275V22.2475H112.437V23.9275H105.137ZM123.53 19.2275H125.27V29.2275H123.53V27.5075C122.663 28.8275 121.403 29.4875 119.75 29.4875C118.35 29.4875 117.156 28.9809 116.17 27.9675C115.183 26.9409 114.69 25.6942 114.69 24.2275C114.69 22.7609 115.183 21.5209 116.17 20.5075C117.156 19.4809 118.35 18.9675 119.75 18.9675C121.403 18.9675 122.663 19.6275 123.53 20.9475V19.2275ZM119.97 27.8075C120.983 27.8075 121.83 27.4675 122.51 26.7875C123.19 26.0942 123.53 25.2409 123.53 24.2275C123.53 23.2142 123.19 22.3675 122.51 21.6875C121.83 20.9942 120.983 20.6475 119.97 20.6475C118.97 20.6475 118.13 20.9942 117.45 21.6875C116.77 22.3675 116.43 23.2142 116.43 24.2275C116.43 25.2409 116.77 26.0942 117.45 26.7875C118.13 27.4675 118.97 27.8075 119.97 27.8075ZM133.426 18.9675C134.826 18.9675 136.019 19.4809 137.006 20.5075C137.993 21.5209 138.486 22.7609 138.486 24.2275C138.486 25.6942 137.993 26.9409 137.006 27.9675C136.019 28.9809 134.826 29.4875 133.426 29.4875C131.773 29.4875 130.513 28.8275 129.646 27.5075V33.2275H127.906V19.2275H129.646V20.9475C130.513 19.6275 131.773 18.9675 133.426 18.9675ZM133.206 27.8075C134.206 27.8075 135.046 27.4675 135.726 26.7875C136.406 26.0942 136.746 25.2409 136.746 24.2275C136.746 23.2142 136.406 22.3675 135.726 21.6875C135.046 20.9942 134.206 20.6475 133.206 20.6475C132.193 20.6475 131.346 20.9942 130.666 21.6875C129.986 22.3675 129.646 23.2142 129.646 24.2275C129.646 25.2409 129.986 26.0942 130.666 26.7875C131.346 27.4675 132.193 27.8075 133.206 27.8075ZM141.442 17.4075C141.109 17.4075 140.829 17.2942 140.602 17.0675C140.376 16.8409 140.262 16.5675 140.262 16.2475C140.262 15.9275 140.376 15.6542 140.602 15.4275C140.829 15.1875 141.109 15.0675 141.442 15.0675C141.762 15.0675 142.036 15.1875 142.262 15.4275C142.489 15.6542 142.602 15.9275 142.602 16.2475C142.602 16.5675 142.489 16.8409 142.262 17.0675C142.036 17.2942 141.762 17.4075 141.442 17.4075ZM140.562 29.2275V19.2275H142.302V29.2275H140.562Z" fill="#2F2E41"/>
<path d="M18.9001 24.2275C18.9001 25.3321 18.0047 26.2275 16.9001 26.2275C15.7956 26.2275 14.9001 25.3321 14.9001 24.2275C14.9001 23.123 15.7956 22.2275 16.9001 22.2275C18.0047 22.2275 18.9001 23.123 18.9001 24.2275Z" fill="#7EB77F"/>
<path d="M33.0999 24.2275C33.0999 25.3321 32.2044 26.2275 31.0999 26.2275C29.9953 26.2275 29.0999 25.3321 29.0999 24.2275C29.0999 23.123 29.9953 22.2275 31.0999 22.2275C32.2044 22.2275 33.0999 23.123 33.0999 24.2275Z" fill="#7EB77F"/>
<path d="M26.0068 24.2275C26.0068 25.3321 25.1114 26.2275 24.0068 26.2275C22.9023 26.2275 22.0068 25.3321 22.0068 24.2275C22.0068 23.123 22.9023 22.2275 24.0068 22.2275C25.1114 22.2275 26.0068 23.123 26.0068 24.2275Z" fill="#7EB77F"/>
<path d="M36.9844 15.2275C37.5148 15.2275 38.0235 15.4383 38.3986 15.8133C38.7737 16.1884 38.9844 16.6971 38.9844 17.2275V21.2275C38.9844 21.758 39.1951 22.2667 39.5702 22.6418C39.9452 23.0168 40.4539 23.2275 40.9844 23.2275H41.9844V25.2275H40.9844C40.4539 25.2275 39.9452 25.4383 39.5702 25.8133C39.1951 26.1884 38.9844 26.6971 38.9844 27.2275V31.2275C38.9844 31.758 38.7737 32.2667 38.3986 32.6418C38.0235 33.0168 37.5148 33.2275 36.9844 33.2275H34.9844V31.2275H36.9844V26.2275C36.9844 25.6971 37.1951 25.1884 37.5702 24.8133C37.9452 24.4383 38.4539 24.2275 38.9844 24.2275C38.4539 24.2275 37.9452 24.0168 37.5702 23.6418C37.1951 23.2667 36.9844 22.758 36.9844 22.2275V17.2275H34.9844V15.2275H36.9844Z" fill="#00A8E8"/>
<path d="M9.57016 15.8133C9.94523 15.4383 10.4539 15.2275 10.9844 15.2275H12.9844V17.2275H10.9844V22.2275C10.9844 22.758 10.7737 23.2667 10.3986 23.6418C10.0235 24.0168 9.51481 24.2275 8.98438 24.2275C9.51481 24.2275 10.0235 24.4383 10.3986 24.8133C10.7737 25.1884 10.9844 25.6971 10.9844 26.2275V31.2275H12.9844V33.2275H10.9844C10.4539 33.2275 9.94523 33.0168 9.57016 32.6418C9.19509 32.2667 8.98438 31.758 8.98438 31.2275V27.2275C8.98438 26.6971 8.77366 26.1884 8.39859 25.8133C8.02352 25.4383 7.51481 25.2275 6.98438 25.2275H5.98438V23.2275H6.98438C7.51481 23.2275 8.02352 23.0168 8.39859 22.6418C8.77366 22.2667 8.98438 21.758 8.98438 21.2275V17.2275C8.98438 16.6971 9.19509 16.1884 9.57016 15.8133Z" fill="#00A8E8"/>
</svg>
