<svg width="48" height="48" viewBox="0 0 48 48" fill="none" xmlns="http://www.w3.org/2000/svg">
<g filter="url(#filter0_d)">
<path d="M18.9001 24C18.9001 25.1046 18.0047 26 16.9001 26C15.7956 26 14.9001 25.1046 14.9001 24C14.9001 22.8954 15.7956 22 16.9001 22C18.0047 22 18.9001 22.8954 18.9001 24Z" fill="#7EB77F"/>
<path d="M33.0999 24C33.0999 25.1046 32.2044 26 31.0999 26C29.9953 26 29.0999 25.1046 29.0999 24C29.0999 22.8954 29.9953 22 31.0999 22C32.2044 22 33.0999 22.8954 33.0999 24Z" fill="#7EB77F"/>
<path d="M26.0068 24C26.0068 25.1046 25.1114 26 24.0068 26C22.9023 26 22.0068 25.1046 22.0068 24C22.0068 22.8954 22.9023 22 24.0068 22C25.1114 22 26.0068 22.8954 26.0068 24Z" fill="#7EB77F"/>
<path d="M36.9844 15C37.5148 15 38.0235 15.2107 38.3986 15.5858C38.7737 15.9609 38.9844 16.4696 38.9844 17V21C38.9844 21.5304 39.1951 22.0391 39.5702 22.4142C39.9452 22.7893 40.4539 23 40.9844 23H41.9844V25H40.9844C40.4539 25 39.9452 25.2107 39.5702 25.5858C39.1951 25.9609 38.9844 26.4696 38.9844 27V31C38.9844 31.5304 38.7737 32.0391 38.3986 32.4142C38.0235 32.7893 37.5148 33 36.9844 33H34.9844V31H36.9844V26C36.9844 25.4696 37.1951 24.9609 37.5702 24.5858C37.9452 24.2107 38.4539 24 38.9844 24C38.4539 24 37.9452 23.7893 37.5702 23.4142C37.1951 23.0391 36.9844 22.5304 36.9844 22V17H34.9844V15H36.9844Z" fill="#00A8E8"/>
<path d="M9.57016 15.5858C9.94523 15.2107 10.4539 15 10.9844 15H12.9844V17H10.9844V22C10.9844 22.5304 10.7737 23.0391 10.3986 23.4142C10.0235 23.7893 9.51481 24 8.98438 24C9.51481 24 10.0235 24.2107 10.3986 24.5858C10.7737 24.9609 10.9844 25.4696 10.9844 26V31H12.9844V33H10.9844C10.4539 33 9.94523 32.7893 9.57016 32.4142C9.19509 32.0391 8.98438 31.5304 8.98438 31V27C8.98438 26.4696 8.77366 25.9609 8.39859 25.5858C8.02352 25.2107 7.51481 25 6.98438 25H5.98438V23H6.98438C7.51481 23 8.02352 22.7893 8.39859 22.4142C8.77366 22.0391 8.98438 21.5304 8.98438 21V17C8.98438 16.4696 9.19509 15.9609 9.57016 15.5858Z" fill="#00A8E8"/>
</g>
<defs>
<filter id="filter0_d" x="-4" y="-2" width="56" height="56" filterUnits="userSpaceOnUse" color-interpolation-filters="sRGB">
<feFlood flood-opacity="0" result="BackgroundImageFix"/>
<feColorMatrix in="SourceAlpha" type="matrix" values="0 0 0 0 0 0 0 0 0 0 0 0 0 0 0 0 0 0 127 0"/>
<feOffset dy="2"/>
<feGaussianBlur stdDeviation="2"/>
<feColorMatrix type="matrix" values="0 0 0 0 0 0 0 0 0 0 0 0 0 0 0 0 0 0 0.25 0"/>
<feBlend mode="normal" in2="BackgroundImageFix" result="effect1_dropShadow"/>
<feBlend mode="normal" in="SourceGraphic" in2="effect1_dropShadow" result="shape"/>
</filter>
</defs>
</svg>
